<?xml version="1.0" encoding="UTF-8" standalone="no"?>
<svg
   xmlns:dc="http://purl.org/dc/elements/1.1/"
   xmlns:cc="http://creativecommons.org/ns#"
   xmlns:rdf="http://www.w3.org/1999/02/22-rdf-syntax-ns#"
   xmlns:svg="http://www.w3.org/2000/svg"
   xmlns="http://www.w3.org/2000/svg"
   height="109.50501"
   width="355.41071"
   xml:space="preserve"
   viewBox="0 0 355.41072 109.50501"
   y="0px"
   x="0px"
   id="Layer_1"
   version="1.1"><metadata
   id="metadata53"><rdf:RDF><cc:Work
       rdf:about=""><dc:format>image/svg+xml</dc:format><dc:type
         rdf:resource="http://purl.org/dc/dcmitype/StillImage" /></cc:Work></rdf:RDF></metadata><defs
   id="defs51" />
<style
   id="style2"
   type="text/css">
	.st0{fill:#FFDE17;}
	.st1{fill:#FFEC5F;}
	.st2{fill:#231F20;stroke:#231F20;stroke-miterlimit:10;}
	.st3{fill:#939598;}
</style>
<path
   style="fill:#ffde17"
   id="path4"
   d="m 28.5,62.2 c 0,0.4 0,0.8 0,1.2 0,18.2 14.7,33 33,33 18.3,0 33,-14.7 33,-33 0,-18.3 -14.7,-33 -33,-33 -7,0 -13.8,2.2 -19.4,6.3 3.9,0 7.9,0.5 11.7,1.4 2.9,0.7 5.5,2.1 7.7,4 11.7,0 21.2,9.5 21.2,21.3 0,11.7 -9.5,21.2 -21.3,21.2 -11.8,0 -21.2,-9.6 -21.2,-21.3 0,-2.3 0.4,-4.7 1.2,-6.9 -2.4,-0.3 -4.8,0.1 -6.9,1.1 -6,3 -6,4.7 -6,4.7 z"
   class="st0" />
<path
   style="fill:#ffec5f"
   id="path6"
   d="m 74.5,74.3 c 0,-0.4 0,-0.8 0,-1.2 0,-18.2 -14.8,-33 -33,-33 -18.2,0 -33,14.8 -33,33 0,18.2 14.8,33 33,33 7,0 13.7,-2.2 19.4,-6.3 C 57,99.8 53,99.3 49.2,98.4 46.3,97.7 43.7,96.3 41.5,94.3 29.8,94.3 20.2,84.8 20.3,73 20.4,61.2 29.8,51.7 41.6,51.8 c 11.8,0.1 21.3,9.5 21.2,21.3 0,2.4 -0.4,4.7 -1.2,6.9 2.4,0.3 4.8,-0.1 7,-1.1 5.9,-2.9 5.9,-4.6 5.9,-4.6 z"
   class="st1" />
<polygon
   transform="translate(-0.8,-3.3)"
   style="fill:#ffde17"
   id="polygon8"
   points="28.7,42.9 0.8,41.6 10.2,35.6 "
   class="st0" />
<polygon
   transform="translate(-0.8,-3.3)"
   style="fill:#ffde17"
   id="polygon10"
   points="16.9,20.2 2.1,21 28.4,35.2 "
   class="st0" />
<polygon
   transform="translate(-0.8,-3.3)"
   style="fill:#ffde17"
   id="polygon12"
   points="30.3,3.3 24.5,15.4 34.3,34.7 "
   class="st0" />
<polygon
   transform="translate(-0.8,-3.3)"
   style="fill:#ffde17"
   id="polygon14"
   points="41.2,35.7 50.3,13.9 39.9,17.8 "
   class="st0" />
<path
   style="fill:#231f20;stroke:#231f20;stroke-miterlimit:10"
   id="path16"
   d="m 131.9,45.9 6.9,16.4 c 0.8,1.8 1.3,2.7 1.7,2.7 0.4,0 0.7,-0.5 1.1,-1.6 0.1,-0.3 0.4,-1 0.9,-1.9 3,-6.7 5.9,-13.5 8.5,-20.4 2.6,-6.9 3.9,-10.9 3.9,-12.1 0,-1.1 -1,-1.8 -2.9,-2.2 -1.1,-0.3 -1.6,-0.6 -1.6,-1.1 0,-0.5 0.3,-0.7 1,-0.7 0.1,0 0.3,0 0.6,0 1,0.1 2.4,0.1 4.2,0.1 1.6,0 3.2,0 4.7,-0.2 0.5,-0.1 1.1,-0.1 1.6,-0.2 0.5,0 0.8,0.2 0.8,0.7 0,0.5 -0.3,0.8 -1,1 -1,0.4 -1.7,1.1 -2.1,2.1 l -2,4.2 c -0.8,1.7 -2,4.5 -3.7,8.4 -1.7,4.1 -3,7.2 -3.9,9.2 l -4.2,9.4 -2.8,6.6 -1.7,3.8 -0.8,1.8 -0.5,1 c -0.6,1.3 -1.2,1.9 -1.8,1.9 -0.6,0 -1,-0.6 -1.5,-1.7 L 128.7,53 120.2,73.7 c -0.4,1 -0.8,1.5 -1.3,1.5 -0.6,0 -1.3,-0.9 -2,-2.7 L 102.6,38.3 101.7,36 c -0.8,-2.3 -1.9,-4.5 -3.3,-6.5 -0.8,-1.2 -2.1,-2 -3.5,-2.4 l -1.4,-0.4 c -0.4,0 -0.7,-0.4 -0.7,-0.8 0,-0.5 0.3,-0.8 1,-0.8 0.3,0 0.6,0 0.9,0.1 1.2,0.1 2.3,0.2 3.5,0.2 h 4.3 l 2.9,-0.1 c 1.2,-0.1 1.9,-0.1 2.1,-0.1 0.6,0 0.9,0.3 0.9,0.8 0,0.4 -0.3,0.8 -0.8,0.9 -1.4,0.4 -2.2,1.1 -2.2,2 0,1.1 0.8,3.6 2.5,7.5 0.8,1.8 2,4.8 3.7,9 1.7,4.2 2.8,7 3.5,8.5 l 3.4,7.5 c 0.4,0.8 0.6,1.4 0.8,1.7 l 0.4,0.7 c 0.3,0.5 0.4,0.8 0.6,0.8 0.2,0 0.4,-0.4 0.7,-1.1 l 0.2,-0.4 5.9,-13.9 c -0.5,-1.2 -0.8,-1.8 -0.9,-2.1 l -3,-7.4 -2.9,-6.7 c -0.6,-1.6 -1.4,-3.2 -2.4,-4.7 -0.7,-0.7 -1.7,-1.2 -2.7,-1.3 -1.9,-0.3 -2.8,-0.7 -2.8,-1.3 0,-0.6 0.5,-0.7 1.5,-0.7 h 1.4 l 6.7,0.2 c 1.1,0 2.3,-0.1 3.4,-0.2 0.8,-0.1 1.3,-0.1 1.5,-0.1 0.8,0 1.2,0.3 1.2,0.8 0,0.4 -0.4,0.7 -1.1,1 -1,0.3 -1.7,1.2 -1.7,2.2 0.2,1.5 0.6,2.9 1.2,4.3 l 3.7,8.7 c 0.3,-0.7 0.5,-1.3 0.7,-1.6 2.7,-5.9 4,-9.8 4,-11.6 0,-1.1 -0.8,-1.7 -2.3,-2 -1.1,-0.2 -1.7,-0.6 -1.7,-1.1 0,-0.5 0.4,-0.7 1.2,-0.7 l 1.4,0.1 c 1,0.1 2.2,0.1 3.6,0.1 1.1,0 2.3,0 3.4,-0.1 0.7,-0.1 1.1,-0.1 1.4,-0.1 0.7,0 1,0.3 1,0.8 0,0.4 -0.4,0.7 -1.2,0.9 -0.8,0.2 -1.4,0.6 -1.9,1.3 -0.9,1.5 -1.6,3 -2.2,4.6 z"
   class="st2" />
<path
   style="fill:#231f20;stroke:#231f20;stroke-miterlimit:10"
   id="path18"
   d="m 159.4,55.4 v 0.8 c -0.1,3.6 1,7.2 3.3,10 1.9,2.5 4.9,4 8.1,4 2.5,0 5.3,-1.1 8.2,-3.4 0.2,-0.1 0.3,-0.2 0.5,-0.2 0.3,0 0.5,0.2 0.5,0.6 0,0.7 -0.8,1.7 -2.4,2.9 -2.7,2.2 -6,3.5 -9.5,3.5 -3.6,0.1 -7.1,-1.5 -9.5,-4.3 -2.6,-2.9 -3.9,-6.7 -3.8,-10.6 0,-3.9 1.4,-7.6 4,-10.5 2.2,-2.8 5.6,-4.5 9.2,-4.5 3.7,-0.1 7.2,1.7 9.2,4.8 0.7,1 1.2,2.1 1.7,3.2 0.4,0.9 0.7,1.8 0.9,2.8 0,0.8 -0.8,1.1 -2.3,1.1 h -2.6 l -2.4,-0.1 z m 0.2,-1.9 h 11.7 c 1.8,0 2.7,-0.4 2.7,-1.1 -0.1,-1.9 -0.9,-3.7 -2.3,-5 -1.3,-1.4 -3.1,-2.3 -5.1,-2.3 -1.8,0 -3.6,0.8 -4.7,2.3 -1.3,1.7 -2.1,3.8 -2.3,6.1 z"
   class="st2" />
<path
   style="fill:#231f20;stroke:#231f20;stroke-miterlimit:10"
   id="path20"
   d="m 206.7,68.3 c -1.7,1.6 -3.7,2.9 -5.7,4.1 -1.6,0.7 -3.3,1.1 -5,1 -3.4,0 -6.6,-1.5 -8.8,-4.1 -2.4,-2.8 -3.7,-6.4 -3.5,-10.1 -0.1,-4.1 1.4,-8.1 4.2,-11.2 2.6,-3 6.4,-4.6 10.4,-4.6 3,0.1 5.8,0.9 8.4,2.5 V 32.3 c 0,-4.4 -1.2,-6.5 -3.5,-6.3 l -1.2,0.1 c -0.2,0 -0.3,0 -0.4,-0.1 -0.2,-0.1 -0.4,-0.3 -0.4,-0.5 -0.1,-0.5 0.3,-0.8 1,-0.8 2.9,-0.5 5.7,-1.6 8.1,-3.2 0.2,-0.1 0.4,-0.2 0.7,-0.3 0.4,0 0.5,0.3 0.5,0.8 v 0.6 44 c 0,2.6 0.8,3.9 2.4,3.9 l 2,-0.1 h 0.3 c 0.2,0.1 0.4,0.3 0.4,0.6 0,0.5 -0.4,0.8 -1.3,0.9 -0.9,0.1 -1.6,0.2 -1.8,0.2 l -1.9,0.3 c -1,0.1 -2.1,0.4 -3.1,0.7 -0.3,0.2 -0.6,0.3 -1,0.4 -0.5,0 -0.8,-0.6 -0.8,-1.7 z m 0,-4.1 V 52.8 c 0.2,-1.7 -0.4,-3.3 -1.5,-4.6 -2.1,-2.1 -5.1,-3.3 -8.1,-3.3 -2.6,-0.1 -5.1,1.1 -6.7,3.2 -1.8,2.4 -2.7,5.4 -2.6,8.4 -0.1,3.6 1.1,7.1 3.4,9.8 2.2,2.8 4.9,4.2 7.9,4.2 2,0.1 3.9,-0.5 5.5,-1.8 1.4,-1.1 2.2,-2.8 2.1,-4.5 z"
   class="st2" />
<path
   style="fill:#231f20;stroke:#231f20;stroke-miterlimit:10"
   id="path22"
   d="m 240.7,68.3 c -1.7,1.6 -3.7,3 -5.7,4.1 -1.6,0.7 -3.3,1.1 -5,1 -3.4,0 -6.6,-1.5 -8.8,-4.1 -2.4,-2.8 -3.7,-6.4 -3.5,-10.1 -0.1,-4.1 1.4,-8.1 4.2,-11.2 2.6,-3 6.4,-4.6 10.4,-4.6 3,0.1 5.8,0.9 8.4,2.5 V 32.3 c 0,-4.4 -1.2,-6.5 -3.5,-6.3 l -1.2,0.1 c -0.2,0 -0.3,0 -0.5,-0.1 -0.2,-0.1 -0.4,-0.3 -0.4,-0.5 0,-0.5 0.3,-0.8 1,-0.8 2.9,-0.5 5.7,-1.6 8.1,-3.2 0.2,-0.1 0.4,-0.2 0.7,-0.3 0.4,0 0.5,0.3 0.5,0.8 v 0.6 44 c 0,2.6 0.8,3.9 2.4,3.9 l 2,-0.1 h 0.3 c 0.2,0.1 0.4,0.3 0.4,0.6 0,0.5 -0.4,0.8 -1.3,0.9 -0.9,0.1 -1.5,0.2 -1.8,0.2 l -2,0.3 c -1,0.1 -2.1,0.4 -3.1,0.7 -0.3,0.2 -0.6,0.3 -1,0.4 -0.5,0 -0.8,-0.6 -0.8,-1.7 z m 0,-4.1 V 52.8 c 0.1,-1.7 -0.4,-3.3 -1.5,-4.6 -2.2,-2.1 -5.1,-3.3 -8.1,-3.3 -2.6,-0.1 -5.1,1.1 -6.7,3.2 -1.8,2.4 -2.7,5.4 -2.6,8.4 -0.1,3.6 1.1,7.1 3.4,9.8 2.2,2.8 4.9,4.2 8,4.2 2,0.1 3.9,-0.5 5.5,-1.8 1.3,-1.1 2.1,-2.8 2,-4.5 z"
   class="st2" />
<path
   style="fill:#231f20;stroke:#231f20;stroke-miterlimit:10"
   id="path24"
   d="m 261.2,67 c -0.1,1.1 0.1,2.3 0.5,3.3 0.6,0.7 1.4,1.1 2.3,1.1 l 1.6,0.2 c 0.8,0.1 1.2,0.4 1.2,0.9 0,0.5 -0.3,0.6 -0.9,0.6 -0.4,0 -1.1,-0.1 -2.3,-0.2 -0.6,0 -1.4,-0.1 -2.4,-0.1 H 259 l -2.5,0.1 c -0.5,0 -0.8,0.1 -1.1,0.1 -0.6,0.1 -1,0.1 -1.3,0.1 -0.6,0 -0.9,-0.2 -0.9,-0.6 0,-0.4 0.3,-0.7 0.6,-0.8 l 0.7,-0.2 c 0.7,-0.2 1.2,-0.7 1.5,-1.3 0.3,-1 0.5,-2 0.4,-3 V 52 c 0.1,-1.3 -0.1,-2.6 -0.5,-3.7 -0.6,-0.7 -1.5,-1 -2.4,-0.9 -0.9,0 -1.3,-0.2 -1.3,-0.5 0,-0.3 0.6,-0.7 1.8,-1 1.7,-0.6 3.3,-1.4 4.9,-2.2 l 1.8,-0.9 c 0.3,0 0.5,0.3 0.5,0.8 z m -2.1,-37.8 c 0.6,0 1.1,0.5 1.7,1.4 l 0.8,1.3 c 0.2,0.2 0.3,0.6 0.4,0.9 -0.1,0.9 -0.6,1.6 -1.2,2.2 -0.8,1 -1.5,1.4 -2,1.4 -0.5,0 -1.1,-0.5 -1.8,-1.4 -0.6,-0.6 -1,-1.4 -1.1,-2.2 0.2,-0.9 0.7,-1.6 1.3,-2.2 0.7,-0.9 1.4,-1.4 1.9,-1.4 z"
   class="st2" />
<path
   style="fill:#231f20;stroke:#231f20;stroke-miterlimit:10"
   id="path26"
   d="m 278.3,49 c 3.1,-3.7 6.3,-5.5 9.6,-5.5 3.5,-0.1 6.8,1.6 8.8,4.6 1.5,2.1 2.2,5.2 2.2,9.5 v 8.3 1 l 0.1,1.7 c 0.2,1.5 1.4,2.6 2.9,2.7 l 1.5,0.2 c 0.6,0.1 1,0.3 1,0.7 0,0.4 -0.4,0.8 -1.1,0.8 -0.5,0 -0.9,-0.1 -1.4,-0.1 -1.4,-0.1 -2.8,-0.2 -4.2,-0.2 l -3.4,0.1 H 293 l -1,0.1 -0.5,-0.1 c -0.2,-0.1 -0.3,-0.3 -0.2,-0.5 0,-0.3 0.2,-0.6 0.6,-0.7 l 1,-0.3 c 0.9,-0.2 1.4,-1.1 1.4,-2.5 V 56.7 c 0,-3.2 -0.7,-5.7 -2.2,-7.4 -1.6,-1.8 -3.9,-2.8 -6.3,-2.6 -1.8,0 -3.7,0.6 -5.1,1.7 -1.3,0.9 -2.2,2.3 -2.2,3.9 v 13.2 1 1.7 c 0.1,1.9 1.7,3 4.8,3.2 0.8,0.1 1.1,0.3 1.1,0.7 0,0.4 -0.3,0.7 -0.8,0.7 -0.6,0 -1.2,-0.1 -1.8,-0.2 -0.4,0 -1.5,-0.1 -3.3,-0.1 -3.7,0 -5.9,0.1 -6.6,0.2 -0.7,0.1 -1.2,0.1 -1.4,0.1 -0.4,0 -0.6,-0.2 -0.6,-0.6 0,-0.4 0.2,-0.5 0.6,-0.7 0.9,-0.2 1.8,-0.7 2.4,-1.5 0.5,-0.9 0.7,-1.9 0.6,-2.9 V 51.5 c 0.1,-1.1 -0.1,-2.3 -0.6,-3.3 -0.5,-0.7 -1.4,-1 -2.2,-0.9 h -1.5 c -0.2,0 -0.4,0 -0.6,-0.1 -0.2,-0.1 -0.3,-0.3 -0.3,-0.5 0,-0.3 0.3,-0.6 0.9,-0.7 1.5,-0.3 3,-0.7 4.5,-1.4 l 1.8,-0.9 c 0.7,-0.3 1.2,-0.6 1.4,-0.7 0.3,-0.2 0.5,-0.2 0.8,-0.3 0.4,0 0.6,0.3 0.6,1 0,0.4 0,0.8 0,1.3 z"
   class="st2" />
<path
   style="fill:#231f20;stroke:#231f20;stroke-miterlimit:10"
   id="path28"
   d="m 308.7,73.6 v -0.2 c -1.6,-1.2 -2.4,-2.5 -2.4,-3.9 0,-2.7 1.3,-5 4,-6.9 -3.1,-1.8 -4.6,-4.7 -4.6,-8.6 -0.1,-2.8 1,-5.5 3,-7.5 2,-2 4.8,-3.1 7.6,-3 2.6,0 5.2,0.7 7.4,2.1 0.5,0.4 1.1,0.7 1.7,0.8 1,-0.1 2,-0.4 2.8,-0.9 0.8,-0.3 1.5,-1 2,-1.8 l 0.5,-1.3 c 0.1,-0.3 0.3,-0.4 0.6,-0.4 0.4,0 0.6,0.3 0.6,0.8 -0.1,0.9 -0.3,1.8 -0.5,2.7 -0.2,1 -0.5,1.9 -1,2.8 -0.4,0.8 -1.1,1.3 -2,1.6 -0.4,0.1 -0.7,0.3 -0.7,0.6 0,0.2 0,0.4 0.1,0.7 0.2,1 0.3,2 0.3,2.9 0,2.7 -1.2,5.2 -3.2,6.9 -2,1.9 -4.7,3 -7.5,2.9 -1.4,0 -2.8,-0.2 -4.1,-0.4 -0.4,-0.1 -0.7,-0.1 -1.1,-0.1 -0.8,0.1 -1.6,0.5 -2.1,1.2 -0.6,0.7 -1,1.6 -1,2.5 0,1.2 0.8,2.2 1.9,2.6 2.1,0.6 4.3,0.9 6.5,0.8 4.6,0 7.8,0.5 9.7,1.4 1.9,0.9 3,2.8 2.8,4.9 0,2.7 -1.3,4.9 -4,6.8 -2.9,1.9 -6.3,2.9 -9.7,2.8 -3.1,0.1 -6.2,-0.5 -9,-1.9 -2.3,-1.3 -3.5,-2.9 -3.5,-5 -0.1,-2.9 1.6,-4.8 4.9,-5.9 z m 1.5,0.5 c -2,0.7 -3.3,2.6 -3.3,4.8 0,1.8 0.8,3.4 2.3,4.3 1.9,1.1 4.1,1.7 6.3,1.6 2.7,0.1 5.5,-0.5 7.9,-1.8 2.1,-1.2 3.2,-2.7 3.2,-4.6 0,-2.1 -1.6,-3.2 -4.9,-3.2 -0.4,0 -1.7,-0.1 -3.7,-0.2 l -3.7,-0.3 c -1.3,0 -2.7,-0.2 -4.1,-0.6 z m 6.4,-29.4 c -1.8,0 -3.4,0.9 -4.4,2.3 -1.2,1.6 -1.9,3.6 -1.8,5.7 -0.1,2.5 0.6,5 2,7.1 1.1,1.7 2.9,2.8 4.9,2.8 1.8,0 3.5,-0.8 4.6,-2.2 1.2,-1.7 1.8,-3.8 1.7,-5.8 0.1,-2.5 -0.6,-4.9 -2,-7 -1.2,-1.9 -3,-2.9 -5,-2.9 z"
   class="st2" />
<path
   style="fill:#231f20;stroke:#231f20;stroke-miterlimit:10"
   id="path30"
   d="m 345.9,43.5 c 1.6,0 3.2,0.2 4.7,0.7 l 1.5,0.5 c 0.6,0.2 0.9,0.6 0.9,1.1 v 0.6 c 0,0.3 0,0.7 0.1,1 l 0.1,1.3 c 0.1,0.4 0.1,0.9 0.1,1.3 0,0.9 -0.3,1.4 -0.8,1.4 -0.3,0 -0.5,-0.3 -0.8,-0.9 -1.3,-3.5 -3.6,-5.3 -7.1,-5.3 -1.2,0 -2.5,0.4 -3.4,1.2 -1.7,1.5 -1.8,4 -0.3,5.6 0.1,0.2 0.3,0.3 0.4,0.4 1.9,1.3 3.9,2.3 5.9,3 2.2,0.7 4.3,1.9 6,3.6 1.2,1.4 1.8,3.2 1.7,5.1 0,2.5 -1.1,5 -3,6.7 -1.8,1.8 -4.3,2.8 -6.9,2.8 -2.2,-0.1 -4.3,-0.6 -6.2,-1.6 -0.3,-0.2 -0.6,-0.3 -1,-0.4 l -0.9,-0.1 c -0.5,0 -0.9,-0.4 -0.9,-0.8 0,0 0,0 0,0 v -1.5 l -0.1,-4.4 0.1,-1 c 0.1,-0.6 0.4,-0.9 0.8,-1 0.4,-0.1 0.7,0.3 0.9,1 0.3,2.2 1.3,4.3 2.8,6 1.3,1.4 3.1,2.2 5,2.2 1.5,0.1 3,-0.5 4.1,-1.5 1.1,-1 1.7,-2.4 1.6,-3.8 0,-2.4 -1.3,-4.1 -3.9,-5.3 l -3,-1.4 c -2.2,-0.8 -4.2,-2.1 -5.9,-3.7 -1.2,-1.3 -1.8,-3 -1.7,-4.7 0,-2.2 1,-4.2 2.7,-5.6 1.8,-1.7 4.1,-2.6 6.5,-2.5 z"
   class="st2" />
<path
   style="fill:#939598"
   id="path32"
   d="m 133.4,91 c 0,2.4 -1.4,4.5 -3.7,5.3 2.7,0.8 4.9,2.4 4.9,5.6 0,4 -3.4,6.3 -8.4,6.2 L 116,108 l 0.2,-23 9.8,0.1 c 4.5,0.2 7.4,2.4 7.4,5.9 z m -2.6,0.4 c 0,-2.3 -1.8,-3.8 -5.1,-3.8 l -7,-0.1 -0.1,7.9 6.8,0.1 c 3.2,0 5.4,-1.4 5.4,-4.1 z m 1.2,10.4 c 0,-2.5 -2.1,-4 -6.1,-4 l -7.3,-0.1 -0.1,8.1 7.7,0.1 c 3.6,0 5.7,-1.5 5.8,-4.1 z"
   class="st3" />
<path
   style="fill:#939598"
   id="path34"
   d="m 147.3,108.4 h -2.6 l 0.1,-9.1 -9.5,-14 h 3.2 l 7.7,11.6 7.9,-11.4 h 3 l -9.7,13.8 z"
   class="st3" />
<path
   style="fill:#939598"
   id="path36"
   d="M 172.9,88.7 V 94 l 11.9,0.1 v 5 l -11.9,-0.1 -0.1,9.6 h -5.5 l 0.2,-24.9 19,0.1 v 5 z"
   class="st3" />
<path
   style="fill:#939598"
   id="path38"
   d="M 198.9,109.1 C 192.2,109 188.1,105.3 188.2,98 l 0.1,-14.2 h 5.5 l -0.1,14.1 c 0,4.1 2,6.2 5.3,6.2 3.3,0 5.4,-2 5.4,-5.9 l 0.1,-14.3 H 210 L 209.9,98 c 0,7.5 -4.3,11.2 -11,11.1 z"
   class="st3" />
<path
   style="fill:#939598"
   id="path40"
   d="m 231.5,109 -12,-15.9 -0.1,15.8 H 214 L 214.2,84 h 5.1 l 11.6,15.4 0.1,-15.3 h 5.4 l -0.2,24.9 z"
   class="st3" />
<path
   style="fill:#939598"
   id="path42"
   d="m 245.7,109.5 c -3.1,0.1 -6.1,-1.3 -8.1,-3.8 l 3.5,-3.8 c 1.4,1.6 2.8,2.5 4.5,2.5 2.1,0 3.4,-1.2 3.4,-4.1 l 0.1,-16 h 5.6 l -0.1,16.3 c 0,6 -3.6,8.9 -8.9,8.9 z"
   class="st3" />
<path
   style="fill:#939598"
   id="path44"
   d="m 258,109.2 0.2,-24.9 18.8,0.1 v 4.9 l -13.4,-0.1 v 5 l 11.7,0.1 v 4.9 l -11.7,-0.1 v 5.2 l 13.5,0.1 v 4.9 z"
   class="st3" />
<path
   style="fill:#939598"
   id="path46"
   d="m 291.9,89.6 -0.1,19.9 h -5.5 l 0.1,-19.9 h -7.6 v -5.1 l 20.6,0.2 v 5 z"
   class="st3" />
</svg>